<svg xmlns="http://www.w3.org/2000/svg" viewBox="0 0 3067.823 855.199"><defs><style>.cls-1{fill:#fff;}.cls-2{fill:#f8ad1a;}</style></defs><g id="final_1" data-name="final 1"><path class="cls-1" d="M243.687,484.386c-23.875-12.955-54.755-18.338-79.563-22.663l-10.462-1.845c-26.1-4.3-50.757-8.361-69.149-16.783C64.451,433.908,55.107,420.85,55.107,402c0-48.294,51.694-58.431,95.059-58.431A197.648,197.648,0,0,1,234.159,362a2.917,2.917,0,0,1,1.594,2.665v37.293A14.972,14.972,0,0,0,250.8,416.821a14.808,14.808,0,0,0,14.861-14.416l1.461-48.4a14.979,14.979,0,0,0-7.811-13.607c-33.224-17.751-69.849-27.135-105.935-27.135l-3.205.027C69.31,313.293,22.937,345.625,22.937,402c0,68.952,76.023,80.8,126.354,88.642,33.362,4.928,57.626,9.76,75.475,18.607,19.989,9.909,29.3,23.988,29.3,44.308,0,60.424-84.971,63.485-102,63.485-31.221,0-69.029-9.883-98.671-25.791a2.857,2.857,0,0,1-1.444-2.554V549.83c0-8.854-7.611-15.673-16.991-14.81-7.62.7-13.284,7.42-13.284,15.072v50.546a14.921,14.921,0,0,0,7.9,13.165c40.622,21.733,71.972,33.511,121.222,33.511,16.679,0,48.988-1.813,78-13.954,36.939-15.46,55.841-42.07,56.179-79.068C285.532,522.632,272.029,499.766,243.687,484.386Z"/><path class="cls-1" d="M671.655,319.61H567.785a15.168,15.168,0,0,0-15.018,16.129c.444,7.8,7.723,14.143,15.536,14.143h31.5a2.761,2.761,0,0,1,1.919.7,2.937,2.937,0,0,1,.782,3.324L535.457,518.562l-28.474,73.656a2.848,2.848,0,0,1-2.721,1.865,2.762,2.762,0,0,1-2.708-1.835l-28.9-71.985L401.549,353.947a2.922,2.922,0,0,1,2.687-4.065H436.63a15.164,15.164,0,0,0,15.011-16.128c-.443-7.8-7.722-14.144-15.535-14.144H329.08a15.165,15.165,0,0,0-15.011,16.129c.444,7.8,7.722,14.143,15.535,14.143h35.071a2.934,2.934,0,0,1,2.687,1.769L487.94,632.594a2.941,2.941,0,0,1,0,2.308L445.9,732.36c-10.388,23.3-25.38,35.617-43.353,35.617-10.89,0-22.779-4.271-35.335-12.692a14.4,14.4,0,0,0-8.063-2.4,15.077,15.077,0,0,0-12.587,6.614l-.927,1.41a14.776,14.776,0,0,0-2.072,11.3,15.01,15.01,0,0,0,6.493,9.411c17.631,11.506,35.164,17.34,52.114,17.34,32.153,0,58.779-20.726,73.03-56.807L638.368,351.677a2.914,2.914,0,0,1,2.7-1.8h31.11a15.168,15.168,0,0,0,15.017-16.128C686.747,325.953,679.468,319.61,671.655,319.61Z"/><path class="cls-1" d="M932.555,484.385c-23.875-12.956-54.759-18.339-79.571-22.664l-10.456-1.843c-26.1-4.3-50.754-8.361-69.146-16.783-20.059-9.186-29.4-22.244-29.4-41.1,0-48.294,51.69-58.431,95.052-58.431A197.6,197.6,0,0,1,923.026,362a2.916,2.916,0,0,1,1.593,2.665v37.293A15,15,0,0,0,941.612,416.7c6.937-.866,12.714-7.782,12.926-14.769l1.452-47.936a15.007,15.007,0,0,0-7.817-13.593c-33.225-17.751-69.849-27.135-105.935-27.135l-3.205.027C758.177,313.293,711.8,345.625,711.8,402c0,68.952,76.025,80.8,126.354,88.642,33.363,4.928,57.626,9.76,75.475,18.607,19.99,9.909,29.3,23.988,29.3,44.308,0,60.424-84.97,63.485-102,63.485-31.22,0-69.03-9.883-98.669-25.789a2.863,2.863,0,0,1-1.44-2.556V549.83c0-8.854-7.611-15.673-16.991-14.81-7.62.7-13.285,7.42-13.285,15.072v50.546a14.909,14.909,0,0,0,7.9,13.165c40.622,21.733,71.972,33.511,121.223,33.511,16.678,0,48.989-1.813,78-13.954,36.94-15.46,55.841-42.07,56.175-79.068C974.4,522.631,960.9,499.765,932.555,484.385Z"/><path class="cls-1" d="M1212.938,604.658a14.36,14.36,0,0,0-5.736,1.179c-16.646,7.192-34.85,11.838-46.376,11.838-47.254,0-55.9-24.783-55.9-73.593V347.5l.135-.135h96.9a14.234,14.234,0,0,0,13.974-16.268c-.9-6.7-7.655-12.113-14.419-12.113h-96.451l-.135-.135V235.728a12.073,12.073,0,0,0-12.015-12.1,12.3,12.3,0,0,0-1.287.067l-6.717.672a12.1,12.1,0,0,0-10.892,12.037v82.444l-.135.135h-53.96a14.235,14.235,0,0,0-13.973,16.269c.9,6.7,7.656,12.112,14.419,12.112h53.514l.135.135V544.082c0,22.18,1.7,50.282,14.975,70.887,13.8,21.426,37.693,32.007,73.069,32.344h.032c16.288,0,37.551-5.214,56.93-13.955a15.138,15.138,0,0,0,6.935-6.1,15.028,15.028,0,0,0-13.019-22.6Zm-50.846,40Z"/><path class="cls-1" d="M1407.49,315.188c-93.117,0-160.7,69.972-160.7,166.377,0,112.58,83.629,163.856,161.33,163.856,53.111,0,104.347-21.367,133.714-55.761a14.966,14.966,0,0,0-2.786-22.024,14.394,14.394,0,0,0-8.622-2.776,14.813,14.813,0,0,0-11.232,5c-23.486,27.085-68.123,45.283-111.074,45.283-88.957,0-125.864-67.519-130.435-125.249-.083-1.862-.314-7.593-.314-9.592,0-1.744.316-7.149.318-7.182,5.165-77.55,56.115-127.659,129.8-127.659,41.3,0,73.878,10.405,96.819,30.925,22.871,20.457,34.829,49.806,35.542,87.238a3.1,3.1,0,0,1-.882,2.251,2.822,2.822,0,0,1-2.052.867H1331.25a14.85,14.85,0,0,0-14.7,15.793c.435,7.638,7.563,13.85,15.214,13.85h222.864a14.841,14.841,0,0,0,14.848-13.782c3.232-49.486-9.2-89.6-36.955-119.225C1503.409,332.3,1459.006,315.188,1407.49,315.188Z"/><path class="cls-1" d="M2056.714,317.9a160.172,160.172,0,0,0-37.987-4.609c-53.694,0-98.361,27.245-119.624,72.923-19.191-45.282-64.835-72.285-122.292-72.285-43.861,0-79.767,17.22-101.24,48.517V331.436a11.757,11.757,0,0,0-11.757-11.757h-64.867a15.343,15.343,0,0,0-15.054,17.537c.973,7.227,8.252,13.06,15.545,13.06h44.3V634.693A11.757,11.757,0,0,0,1655.5,646.45h8.37a11.753,11.753,0,0,0,11.753-11.754V450.189c0-60.727,40.685-103.18,101.243-105.656,62.932.027,106.882,43.467,106.882,105.656V631.241A15.349,15.349,0,0,0,1901.29,646.3c7.227-.975,13.059-8.255,13.059-15.547V450.189c0-62.584,42.922-106.294,104.378-106.294,62.812,0,105.014,41.692,105.014,103.745V634.693A11.757,11.757,0,0,0,2135.5,646.45h8.366a11.757,11.757,0,0,0,11.758-11.757V446.13C2155.622,380.976,2118.647,333.04,2056.714,317.9Z"/><path class="cls-1" d="M2642.046,396.745c-25.635,67.552-24.254,132.744,4,188.529a219.983,219.983,0,0,0,16.779,27.817,208.949,208.949,0,0,0,136.789,85.693c5.707.964,11.475,1.705,17.148,2.207,6.243.552,12.605.832,18.91.832h.02A212.513,212.513,0,0,0,2957.361,663.9c46.181-32.028,76.694-79.861,85.92-134.679s-3.956-110.006-37.114-155.385c-33.008-45.169-81.892-75.208-137.651-84.59-3.17-.531-6.379-1-9.536-1.392a27.787,27.787,0,0,0-21.634,6.781,27.2,27.2,0,0,0-9.159,19.83,27.537,27.537,0,0,0,24.2,28.3c2.346.292,4.687.634,6.959,1.017a158.177,158.177,0,0,1,101.8,62.286c24.554,33.353,34.354,73.829,27.6,113.975a149.424,149.424,0,0,1-58.351,95.043,156.875,156.875,0,0,1-94.746,31.418c-4.722,0-9.5-.21-14.209-.629-4.232-.375-8.488-.923-12.656-1.631a154.241,154.241,0,0,1-100.5-62.78,148.752,148.752,0,0,1-25.879-64.019c-6.867-45.415,6.759-103.14,36.453-154.417.208-.383,5.07-9.177,12.962-23.445,35.331-63.887,142.047-256.842,151.231-273.91l2.723-8.221a27.611,27.611,0,0,0-12.856-32.843l-.591-.325a27.588,27.588,0,0,0-34.609,6.57l-5.138,6.212L2671.9,330.623C2661.647,351.165,2650.835,373.577,2642.046,396.745Z"/><path class="cls-1" d="M2294.758,830.517l.746.4a28.841,28.841,0,0,0,13.615,3.437h.013a28.848,28.848,0,0,0,25.453-15.212l278.463-516.46a28.893,28.893,0,0,0-8.647-37.122l-.39-.288c-4.022-3.173-11.939-5.506-18.519-5.506h-364.7A25.539,25.539,0,0,0,2195.5,284.5l-.023,1.043a24.955,24.955,0,0,0,3.769,13.493l71.823,120.885a25.045,25.045,0,0,0,21.43,11.738,26.669,26.669,0,0,0,25.629-19.972,24.913,24.913,0,0,0-3.009-19.293L2266.786,311h275.336L2282.983,791.438a28.866,28.866,0,0,0,11.775,39.079Z"/><rect class="cls-2" x="2638.32" y="774.365" width="393.767" height="59.238" rx="29.323"/></g></svg>