<svg xmlns="http://www.w3.org/2000/svg" viewBox="0 0 1064 1064"><defs><style>.cls-1{fill:#585048;}.cls-2{fill:#fbac18;}</style></defs><g id="tertiary"><path class="cls-1" d="M554.157,487.36c-31.121,82.01-29.445,161.156,4.851,228.882a267.073,267.073,0,0,0,20.371,33.77A253.671,253.671,0,0,0,745.445,854.048c6.93,1.169,13.932,2.069,20.819,2.679,7.579.67,15.3,1.009,22.958,1.009h.025A258,258,0,0,0,936.963,811.7c56.066-38.883,93.111-96.953,104.311-163.5s-4.8-133.553-45.058-188.644c-40.073-54.837-99.42-91.306-167.114-102.7-3.848-.645-7.744-1.215-11.577-1.69a33.732,33.732,0,0,0-26.264,8.232,33.024,33.024,0,0,0-11.12,24.075,33.43,33.43,0,0,0,29.379,34.355c2.849.355,5.691.77,8.449,1.234,50,8.417,93.89,35.27,123.588,75.618,29.809,40.493,41.707,89.632,33.5,138.371-7.739,46.005-32.9,86.983-70.84,115.385A190.443,190.443,0,0,1,789.2,790.58c-5.733,0-11.538-.255-17.25-.765-5.138-.454-10.306-1.119-15.366-1.979A187.259,187.259,0,0,1,634.57,711.619,180.6,180.6,0,0,1,603.151,633.9c-8.336-55.136,8.207-125.216,44.256-187.47.253-.464,6.155-11.14,15.736-28.462,42.894-77.562,172.451-311.817,183.6-332.538l3.306-9.981a33.522,33.522,0,0,0-15.609-39.873l-.717-.4a33.5,33.5,0,0,0-42.017,7.977L785.471,50.7,590.407,407.084C577.955,432.024,564.828,459.232,554.157,487.36Z"/><path class="cls-1" d="M132.536,1013.977l.906.486a35.008,35.008,0,0,0,16.529,4.173h.015a35.026,35.026,0,0,0,30.9-18.469l338.064-627a35.074,35.074,0,0,0-10.5-45.067l-.473-.35c-4.883-3.853-14.5-6.685-22.483-6.685H42.735a31.006,31.006,0,0,0-30.7,30.026L12,352.353a30.3,30.3,0,0,0,4.576,16.382l87.2,146.759a30.4,30.4,0,0,0,26.016,14.25A32.374,32.374,0,0,0,160.906,505.5a30.238,30.238,0,0,0-3.653-23.422L98.577,383.26H432.846l-314.6,583.274a35.043,35.043,0,0,0,14.3,47.443Z"/><rect class="cls-2" x="549.635" y="945.806" width="478.05" height="71.917" rx="35.599"/></g></svg>