<svg xmlns="http://www.w3.org/2000/svg" viewBox="0 0 1008.101 1008.101"><defs><style>.cls-1{fill:#fff;}</style></defs><g id="secondary"><path class="cls-1" d="M962.518,310.4A500.749,500.749,0,0,0,788.747,95.888l-.007.018.05.034.153.106-1.412,4.263c-9.524,17.708-116.879,211.826-157.293,284.9l-1.949,3.523c-8.031,14.521-13.425,24.276-13.645,24.682-31.238,53.944-45.574,114.661-38.353,162.422a156.347,156.347,0,0,0,27.2,67.293,162.136,162.136,0,0,0,105.648,66c4.366.743,8.843,1.319,13.306,1.714,4.921.44,9.946.662,14.938.662a164.906,164.906,0,0,0,99.6-33.029,157.063,157.063,0,0,0,61.337-99.906c7.1-42.2-3.2-84.749-29.011-119.809A166.3,166.3,0,0,0,762.3,393.282c-2.4-.4-4.86-.763-7.316-1.069a29.365,29.365,0,0,1-25.7-30.047,28.893,28.893,0,0,1,9.727-21.059,29.643,29.643,0,0,1,22.974-7.2c3.3.409,6.682.9,10.051,1.467h0c58.77,9.888,110.3,41.552,145.085,89.159,34.952,47.833,48.845,106,39.121,163.786s-41.888,108.2-90.565,141.959A223.988,223.988,0,0,1,737.43,770.246c-6.66,0-13.366-.295-19.953-.876-5.992-.532-12.073-1.314-18.074-2.326a220.239,220.239,0,0,1-144.179-90.325A231.822,231.822,0,0,1,537.539,647.4c-29.774-58.8-31.233-127.5-4.218-198.694,9.24-24.358,20.575-47.866,31.447-69.64L733.937,69.992l4.154-5.03.175.093.051-.1q-19.791-10.564-40.612-19.373A497.55,497.55,0,0,0,152.229,855.871q2.458,2.459,4.949,4.872L427.933,358.768H138.9l50.662,85.318a26.472,26.472,0,0,1,3.195,20.5A28.326,28.326,0,0,1,165.535,485.8a26.55,26.55,0,0,1-22.774-12.476L67.14,346.049a26.465,26.465,0,0,1-4-14.337l.024-1.1a27.141,27.141,0,0,1,26.878-26.284H474.013c6.976,0,15.425,2.515,19.653,5.851l.4.3a30.664,30.664,0,0,1,9.175,39.4h0L210.067,893.634a30.62,30.62,0,0,1-5.791,7.6,497.141,497.141,0,0,0,589.359,7.51H560.505a30.872,30.872,0,0,1-30.872-30.872v-.624a30.872,30.872,0,0,1,30.872-30.872H865.119a498.146,498.146,0,0,0,97.4-535.977Z"/></g></svg>