<svg id="Layer_1" data-name="Layer 1" xmlns="http://www.w3.org/2000/svg" viewBox="0 0 1499 549">
  <defs>
    <style>
      .cls-1 {
        fill: #fff;
      }

      .cls-2 {
        fill: #f8ad1a;
      }
    </style>
  </defs>
  <g>
    <g>
      <g>
        <path class="cls-1" d="M926.188,397.2c-1.912,7.855-6.047,14.9-13.046,19.282-10.957,6.86-24.371,4.854-33.908-3.484-8.909-7.788-11.892-20.981-9.066-32.444,2.932-11.893,12.093-22.413,23.948-25.679C920.383,347.64,931.294,376.222,926.188,397.2Z"/>
        <path class="cls-1" d="M910.056,315.952c-16.267-6.478-10.741-91.992,4.155-195.8,4.155-28.957,11.373-42.69,19.517-49.683,11.587-9.949,32.66-10.317,47-8.184a80.467,80.467,0,0,1,44.035,21.53c10.466,10.183,11.749,20.555,8.058,34.066-5.887,21.544-16.012,42.1-25.676,62.162-2.341,4.862-22.4,42.967-25.066,47.662C933.6,313.194,923.907,321.468,910.056,315.952Z"/>
      </g>
      <path class="cls-1" d="M581.111,277.48c9.635,41,8.6,86.032.423,118.414-7.737,30.641-28.638,57.975-61.78,67.193-29.1,8.1-63.043,2.152-83.837-17.8C401.729,412.474,381.7,335.52,390.654,279.61c7.2-44.927,31.412-102.436,84.532-104.887a75.7,75.7,0,0,1,10.2.243C539.373,179.768,568.863,225.364,581.111,277.48Zm-97.859,93.34a19.855,19.855,0,0,0,9.046-.4c10.091-2.887,15.894-13.448,18.592-23.55a81.233,81.233,0,0,0-1.767-47.372c-2.7-7.747-6.7-15.222-12.765-20.773-21.53-19.705-42.984.831-46.672,24.055-2.886,18.178,1.285,39.329,12.689,53.972C467.6,363.455,475.175,369.37,483.252,370.82Z"/>
      <path class="cls-1" d="M698.24,364.394c-.1,75.658,7.533,133.63-25.752,140.451-26.984,5.53-26.148-18.224-28.207-38.115C636.3,389.6,628.966,261.517,625.908,184.02c2.193-33.345,24.464-53.683,47.709-58.692,35.773-7.708,73.957-5.526,105.693,14.135C841.981,178.288,847.024,249.5,808.973,307.6c-20.784,31.737-83.747,54.652-110.733,52.66Zm7.981-169.743c-3.938.585-10.325,2.4-12.138,6.2-4.256,8.924-4,65.4,3.527,89.073,1.242,3.9,3.917,7.575,7.781,8.991,14.24,5.217,26.976-12.165,32.766-22.656,8.07-14.621,10.723-31.772,5.581-47.847C738.992,213.578,724.109,191.993,706.221,194.651Z"/>
      <path class="cls-1" d="M339.636,232.279C316.116,282.011,277.071,321.468,223.1,341c15.479,40.452,31.268,80.46,46.747,120.912,8.612,21.822,16.806,45.666,9.341,67.236-7.775,22.015-38.188,28.139-60.287,4.666C176.322,488.594,32.557,202.165,22.033,180.651c-9.04-18.481-22.572-38.272-22.1-59.617.715-32.165,50.489-64.841,74.41-81.482C107.781,16.292,146.389.358,187.655.222c32.153-.048,59.653,8.768,84.07,24.442,37.429,24.027,63.419,62.311,72.952,105.619,8.38,38.066,6.577,76.979-5.041,102m-109.583-54.4c-8.412-30.461-27.367-58.555-51.252-78.276-5.22-4.31-10.841-8.346-17.284-10.456-44.789-14.669-25.374,60.194-18.13,79.143,10.112,26.451,25.432,59.987,45.911,79.983,4.482,4.376,9.767,8.277,15.921,9.515,9.333,1.878,17.946-4.555,22.585-12.178,3.852-6.329,5.449-13.764,6.272-21.119A123.514,123.514,0,0,0,230.053,177.876Z"/>
    </g>
    <g>
      <g>
        <path class="cls-1" d="M1337.8,460.774c-.241,43.885-27,87.765-86.076,87.765s-86.558-43.159-86.558-87.282c0-54.973,38.336-88.969,87.764-88.969C1310.309,372.77,1338.276,415.447,1337.8,460.774Zm-84.87-60.758c-37.131,0-57.865,25.8-58.107,61,0,30.619,17.118,59.312,57.384,59.312s55.694-31.1,55.694-59.555C1308.379,431.121,1292.707,400.741,1252.925,400.016Z"/>
        <path class="cls-1" d="M1362.611,526.114c0,6.512.241-30.861,0-36.647h27.245l1.928,22.907a75.73,75.73,0,0,0,34,8.92c20.977,0,42.917-5.3,42.917-25.8-.722-18.565-25.074-22.425-44.845-24.351-33.513-3.377-60.518-11.575-60.518-49.187,0-33.514,37.854-50.152,66.064-50.152,22.664-.483,38.817,3.134,59.311,19.529,0,13.5-.241,21.46-.241,34.961h-26.28l-1.689-22.181a66.027,66.027,0,0,0-29.9-6.268c-18.082.239-37.371,8.68-37.371,23.868,0,14.948,12.538,19.047,34.72,22.185,36.165,4.821,71.125,13.019,71.125,51.6-.239,42.193-39.781,53.282-73.777,53.282C1399.258,548.778,1383.106,543.957,1362.611,526.114Z"/>
      </g>
      <rect class="cls-2" x="939.87" y="519.078" width="188.488" height="28.998" rx="13.879"/>
    </g>
  </g>
</svg>
