<?xml version="1.0" encoding="utf-8"?>
<!-- Generator: Adobe Illustrator 22.0.1, SVG Export Plug-In . SVG Version: 6.00 Build 0)  -->
<!DOCTYPE svg PUBLIC "-//W3C//DTD SVG 1.1//EN" "http://www.w3.org/Graphics/SVG/1.1/DTD/svg11.dtd">
<svg version="1.1" xmlns="http://www.w3.org/2000/svg" xmlns:xlink="http://www.w3.org/1999/xlink" x="0px" y="0px" width="1499px"
	 height="549px" viewBox="0 0 1499 549" style="enable-background:new 0 0 1499 549;" xml:space="preserve">
<style type="text/css">
	.st0{fill:#6CC7D2;}
	.st1{fill:#BBB5B3;}
	.st2{fill:#99918D;}
	.st3{fill:#48B9C7;}
	.st4{fill:#554741;}
	.st5{fill:#FAA41A;}
	.st6{fill:#FFFFFF;}
	.st7{fill:#8AD2DB;}
	.st8{fill:#A7DDE4;}
	.st9{fill:none;stroke:#000000;stroke-width:4;stroke-linecap:round;stroke-linejoin:round;stroke-dasharray:0.5074,9.1324;}
	.st10{fill:none;stroke:#000000;stroke-width:4;stroke-linecap:round;stroke-linejoin:round;stroke-dasharray:0.4959,8.9271;}
	.st11{fill:none;stroke:#000000;stroke-width:4;stroke-linecap:round;stroke-linejoin:round;stroke-dasharray:0.498,8.9648;}
	.st12{fill:none;stroke:#000000;stroke-width:4;stroke-linecap:round;stroke-linejoin:round;stroke-dasharray:0.5055,9.099;}
	.st13{fill:none;stroke:#000000;stroke-width:4;stroke-linecap:round;stroke-linejoin:round;}
	.st14{fill:none;stroke:#000000;stroke-width:4;stroke-linecap:round;stroke-linejoin:round;stroke-dasharray:0.5031,9.056;}
	.st15{fill:none;stroke:#000000;stroke-width:4;stroke-linecap:round;stroke-linejoin:round;stroke-dasharray:0.5073,9.1314;}
	.st16{fill:none;stroke:#000000;stroke-width:4;stroke-linecap:round;stroke-linejoin:round;stroke-dasharray:0.4846,8.7236;}
	.st17{fill:none;stroke:#000000;stroke-width:4;stroke-linecap:round;stroke-linejoin:round;stroke-dasharray:0.5013,9.0239;}
	.st18{fill:none;stroke:#000000;stroke-width:4;stroke-linecap:round;stroke-linejoin:round;stroke-dasharray:0.4978,8.9597;}
	.st19{fill:none;stroke:#000000;stroke-width:4;stroke-linecap:round;stroke-linejoin:round;stroke-dasharray:0.4961,8.9304;}
	.st20{fill:none;stroke:#000000;stroke-width:4;stroke-linecap:round;stroke-linejoin:round;stroke-dasharray:0.4998,8.9957;}
	.st21{fill:none;stroke:#000000;stroke-width:4;stroke-linecap:round;stroke-linejoin:round;stroke-dasharray:0.4429,7.9719;}
	.st22{fill:none;stroke:#000000;stroke-width:4;stroke-linecap:round;stroke-linejoin:round;stroke-dasharray:0.4747,8.5438;}
	.st23{fill:none;stroke:#000000;stroke-width:4;stroke-linecap:round;stroke-linejoin:round;stroke-dasharray:0.3984,7.1708;}
	.st24{fill:none;stroke:#000000;stroke-width:4;stroke-linecap:round;stroke-linejoin:round;stroke-dasharray:0.5056,9.1016;}
	.st25{fill:none;stroke:#000000;stroke-width:4;stroke-linecap:round;stroke-linejoin:round;stroke-dasharray:0.6129,11.0325;}
	.st26{fill:none;stroke:#000000;stroke-width:4;stroke-linecap:round;stroke-linejoin:round;stroke-dasharray:0.4574,8.2326;}
	.st27{fill:none;stroke:#000000;stroke-width:4;stroke-linecap:round;stroke-linejoin:round;stroke-dasharray:0.3851,6.9314;}
	.st28{fill:none;stroke:#000000;stroke-width:4;stroke-linecap:round;stroke-linejoin:round;stroke-dasharray:0.4913,8.8431;}
	.st29{fill:none;stroke:#000000;stroke-width:4;stroke-linecap:round;stroke-linejoin:round;stroke-dasharray:0.4947,8.9038;}
	.st30{fill:none;stroke:#FFFFFF;stroke-width:60;stroke-miterlimit:10;}
	.st31{fill:none;stroke:#FFFFFF;stroke-width:47;stroke-miterlimit:10;}
	.st32{fill:none;stroke:#FFFFFF;stroke-width:35;stroke-miterlimit:10;}
	.st33{opacity:0.6;}
	.st34{fill:#102A4C;}
	.st35{opacity:0.8;fill:#FFFFFF;}
	.st36{opacity:0.5;fill:#FFFFFF;}
	.st37{opacity:0.5;fill:#6FCBDC;}
	.st38{fill:#FAF39A;}
	.st39{opacity:0.7;fill:#FAF39A;}
	.st40{fill:#F8BBA5;}
	.st41{opacity:0.6;fill:#F8BBA5;}
	.st42{opacity:0.6;fill:#EB2027;}
	.st43{clip-path:url(#SVGID_3_);}
	.st44{clip-path:url(#SVGID_7_);}
	.st45{clip-path:url(#SVGID_8_);}
	.st46{fill:#F2E492;}
	.st47{fill:#E2D98E;}
	.st48{fill:#F9EA98;}
	.st49{fill:#FCF4A7;}
	.st50{fill:#EAE18D;}
	.st51{fill:#FFF19E;}
	.st52{clip-path:url(#SVGID_11_);}
	.st53{clip-path:url(#SVGID_15_);}
	.st54{clip-path:url(#SVGID_19_);}
	.st55{clip-path:url(#SVGID_20_);}
	.st56{fill:#E9A76D;}
	.st57{fill:#FBB86E;}
	.st58{fill:#DFA06C;}
	.st59{fill:#C78760;}
	.st60{fill:#F5AD6E;}
	.st61{fill:#D59468;}
	.st62{clip-path:url(#SVGID_23_);}
	.st63{clip-path:url(#SVGID_28_);}
	.st64{fill:#8F4A55;}
	.st65{fill:#996A7C;}
	.st66{fill:#DA9E9E;}
	.st67{fill:#D47B7F;}
	.st68{fill:#BD6460;}
	.st69{fill:#AC5853;}
	.st70{opacity:0.8;fill:url(#SVGID_33_);}
	.st71{opacity:0.7;fill:url(#SVGID_34_);}
	.st72{fill:#01294D;}
	.st73{opacity:0.5;fill:#00FFFF;}
	.st74{fill:#FFFF99;}
	.st75{opacity:0.7;fill:#FFFF99;}
	.st76{fill:#F9BDA7;}
	.st77{opacity:0.6;fill:#F9BDA7;}
	.st78{opacity:0.6;fill:#ED1C24;}
	.st79{clip-path:url(#SVGID_37_);}
	.st80{clip-path:url(#SVGID_41_);}
	.st81{clip-path:url(#SVGID_42_);}
	.st82{fill:#F4E694;}
	.st83{fill:#E3D98F;}
	.st84{fill:#FBEC9A;}
	.st85{fill:#FFFAA5;}
	.st86{fill:#EBE28F;}
	.st87{fill:#FFF29E;}
	.st88{clip-path:url(#SVGID_45_);}
	.st89{clip-path:url(#SVGID_49_);}
	.st90{clip-path:url(#SVGID_53_);}
	.st91{clip-path:url(#SVGID_57_);}
	.st92{clip-path:url(#SVGID_58_);fill:#EAEAEA;}
	.st93{clip-path:url(#SVGID_58_);fill:#FFFFFF;}
	.st94{clip-path:url(#SVGID_58_);fill:#DFDFDF;}
	.st95{clip-path:url(#SVGID_58_);fill:#C8C8C8;}
	.st96{clip-path:url(#SVGID_58_);fill:#F7F7F7;}
	.st97{clip-path:url(#SVGID_58_);fill:#D6D6D6;}
	.st98{clip-path:url(#SVGID_61_);}
	.st99{clip-path:url(#SVGID_62_);}
	.st100{fill:#EAA76D;}
	.st101{fill:#FFBA6E;}
	.st102{fill:#C88961;}
	.st103{fill:#F7AE6E;}
	.st104{fill:#D69668;}
	.st105{clip-path:url(#SVGID_65_);}
	.st106{clip-path:url(#SVGID_69_);}
	.st107{clip-path:url(#SVGID_73_);}
	.st108{clip-path:url(#SVGID_74_);fill:#EAEAEA;}
	.st109{clip-path:url(#SVGID_74_);fill:#FFFFFF;}
	.st110{clip-path:url(#SVGID_74_);fill:#DFDFDF;}
	.st111{clip-path:url(#SVGID_74_);fill:#C8C8C8;}
	.st112{clip-path:url(#SVGID_74_);fill:#F7F7F7;}
	.st113{clip-path:url(#SVGID_74_);fill:#D6D6D6;}
	.st114{clip-path:url(#SVGID_77_);}
	.st115{clip-path:url(#SVGID_78_);}
	.st116{clip-path:url(#SVGID_81_);}
	.st117{clip-path:url(#SVGID_82_);fill:#EAEAEA;}
	.st118{clip-path:url(#SVGID_82_);fill:#FFFFFF;}
	.st119{clip-path:url(#SVGID_82_);fill:#DFDFDF;}
	.st120{clip-path:url(#SVGID_82_);fill:#C8C8C8;}
	.st121{clip-path:url(#SVGID_82_);fill:#F7F7F7;}
	.st122{clip-path:url(#SVGID_82_);fill:#D6D6D6;}
	.st123{clip-path:url(#SVGID_85_);}
	.st124{clip-path:url(#SVGID_86_);}
	.st125{clip-path:url(#SVGID_89_);}
	.st126{clip-path:url(#SVGID_90_);fill:#EAEAEA;}
	.st127{clip-path:url(#SVGID_90_);fill:#FFFFFF;}
	.st128{clip-path:url(#SVGID_90_);fill:#DFDFDF;}
	.st129{clip-path:url(#SVGID_90_);fill:#C8C8C8;}
	.st130{clip-path:url(#SVGID_90_);fill:#F7F7F7;}
	.st131{clip-path:url(#SVGID_90_);fill:#D6D6D6;}
	.st132{clip-path:url(#SVGID_93_);}
	.st133{clip-path:url(#SVGID_94_);}
	.st134{clip-path:url(#SVGID_97_);}
	.st135{clip-path:url(#SVGID_98_);fill:#EAEAEA;}
	.st136{clip-path:url(#SVGID_98_);fill:#FFFFFF;}
	.st137{clip-path:url(#SVGID_98_);fill:#DFDFDF;}
	.st138{clip-path:url(#SVGID_98_);fill:#C8C8C8;}
	.st139{clip-path:url(#SVGID_98_);fill:#F7F7F7;}
	.st140{clip-path:url(#SVGID_98_);fill:#D6D6D6;}
	.st141{clip-path:url(#SVGID_101_);}
	.st142{clip-path:url(#SVGID_102_);}
	.st143{clip-path:url(#SVGID_105_);}
	.st144{clip-path:url(#SVGID_106_);fill:#EAEAEA;}
	.st145{clip-path:url(#SVGID_106_);fill:#FFFFFF;}
	.st146{clip-path:url(#SVGID_106_);fill:#DFDFDF;}
	.st147{clip-path:url(#SVGID_106_);fill:#C8C8C8;}
	.st148{clip-path:url(#SVGID_106_);fill:#F7F7F7;}
	.st149{clip-path:url(#SVGID_106_);fill:#D6D6D6;}
	.st150{clip-path:url(#SVGID_109_);}
	.st151{clip-path:url(#SVGID_110_);}
	.st152{clip-path:url(#SVGID_113_);}
	.st153{clip-path:url(#SVGID_114_);fill:#EAEAEA;}
	.st154{clip-path:url(#SVGID_114_);fill:#FFFFFF;}
	.st155{clip-path:url(#SVGID_114_);fill:#DFDFDF;}
	.st156{clip-path:url(#SVGID_114_);fill:#C8C8C8;}
	.st157{clip-path:url(#SVGID_114_);fill:#F7F7F7;}
	.st158{clip-path:url(#SVGID_114_);fill:#D6D6D6;}
	.st159{clip-path:url(#SVGID_117_);}
	.st160{clip-path:url(#SVGID_118_);}
	.st161{clip-path:url(#SVGID_122_);}
	.st162{fill:#8F4A54;}
	.st163{fill:#DB9E9E;}
	.st164{fill:#D47B7E;}
	.st165{fill:#BE6460;}
	.st166{fill:#AD5853;}
	.st167{clip-path:url(#SVGID_126_);}
	.st168{clip-path:url(#SVGID_130_);}
	.st169{clip-path:url(#SVGID_132_);}
	.st170{fill:#E6F7FF;}
	.st171{fill:#F7FBFF;}
	.st172{fill:#D7E6F7;}
	.st173{fill:#DBF4FF;}
	.st174{fill:#F5FBFF;}
	.st175{fill:url(#SVGID_133_);}
	.st176{clip-path:url(#SVGID_135_);}
	.st177{opacity:0.4;}
	.st178{fill:url(#SVGID_138_);}
	.st179{fill:#E6E7E8;}
	.st180{clip-path:url(#SVGID_141_);}
	.st181{clip-path:url(#SVGID_142_);}
	.st182{fill:#EAEAEA;}
	.st183{fill:#DFDFDF;}
	.st184{fill:#C8C8C8;}
	.st185{fill:#F7F7F7;}
	.st186{fill:#D6D6D6;}
	.st187{clip-path:url(#SVGID_145_);}
	.st188{clip-path:url(#SVGID_146_);}
	.st189{clip-path:url(#SVGID_149_);}
	.st190{clip-path:url(#SVGID_150_);}
	.st191{clip-path:url(#SVGID_153_);}
	.st192{clip-path:url(#SVGID_154_);}
	.st193{clip-path:url(#SVGID_157_);}
	.st194{clip-path:url(#SVGID_158_);}
	.st195{clip-path:url(#SVGID_161_);}
	.st196{clip-path:url(#SVGID_162_);}
	.st197{fill:#73C48F;}
	.st198{fill:#FFCE51;}
	.st199{fill:#F15D22;}
	.st200{fill:#F79E7B;}
	.st201{opacity:0.8;fill:#FAA41A;}
</style>
<g id="Layer_1">
	<g>
		<g>
			<g>
				<path class="st0" d="M926.2,397.2c-1.9,7.9-6,14.9-13,19.3c-11,6.9-24.4,4.9-33.9-3.5c-8.9-7.8-11.9-21-9.1-32.4
					c2.9-11.9,12.1-22.4,23.9-25.7C920.4,347.6,931.3,376.2,926.2,397.2z"/>
				<path class="st0" d="M910.1,316c-16.3-6.5-10.7-92,4.2-195.8c4.2-29,11.4-42.7,19.5-49.7c11.6-9.9,32.7-10.3,47-8.2
					c16.4,2.4,32.1,10,44,21.5c10.5,10.2,11.7,20.6,8.1,34.1c-5.9,21.5-16,42.1-25.7,62.2c-2.3,4.9-22.4,43-25.1,47.7
					C933.6,313.2,923.9,321.5,910.1,316z"/>
			</g>
			<path class="st1" d="M581.1,277.5c9.6,41,8.6,86,0.4,118.4c-7.7,30.6-28.6,58-61.8,67.2c-29.1,8.1-63,2.2-83.8-17.8
				c-34.2-32.8-54.2-109.8-45.3-165.7c7.2-44.9,31.4-102.4,84.5-104.9c3.4-0.2,6.8-0.1,10.2,0.2
				C539.4,179.8,568.9,225.4,581.1,277.5z M483.3,370.8c3,0.5,6,0.5,9-0.4c10.1-2.9,15.9-13.4,18.6-23.6c4.1-15.5,3.5-32.2-1.8-47.4
				c-2.7-7.7-6.7-15.2-12.8-20.8c-21.5-19.7-43,0.8-46.7,24.1c-2.9,18.2,1.3,39.3,12.7,54C467.6,363.5,475.2,369.4,483.3,370.8z"/>
			<path class="st2" d="M698.2,364.4c-0.1,75.7,7.5,133.6-25.8,140.5c-27,5.5-26.1-18.2-28.2-38.1c-8-77.1-15.3-205.2-18.4-282.7
				c2.2-33.3,24.5-53.7,47.7-58.7c35.8-7.7,74-5.5,105.7,14.1c62.7,38.8,67.7,110,29.7,168.1c-20.8,31.7-83.7,54.7-110.7,52.7V364.4
				z M706.2,194.7c-3.9,0.6-10.3,2.4-12.1,6.2c-4.3,8.9-4,65.4,3.5,89.1c1.2,3.9,3.9,7.6,7.8,9c14.2,5.2,27-12.2,32.8-22.7
				c8.1-14.6,10.7-31.8,5.6-47.8C739,213.6,724.1,192,706.2,194.7z"/>
			<path class="st3" d="M339.6,232.3C316.1,282,277.1,321.5,223.1,341c15.5,40.5,31.3,80.5,46.7,120.9c8.6,21.8,16.8,45.7,9.3,67.2
				c-7.8,22-38.2,28.1-60.3,4.7C176.3,488.6,32.6,202.2,22,180.7C13,162.2-0.5,142.4-0.1,121c0.7-32.2,50.5-64.8,74.4-81.5
				c33.4-23.3,72-39.2,113.3-39.3c32.2,0,59.7,8.8,84.1,24.4c37.4,24,63.4,62.3,73,105.6C353.1,168.3,351.3,207.3,339.6,232.3
				 M230.1,177.9c-8.4-30.5-27.4-58.6-51.3-78.3c-5.2-4.3-10.8-8.3-17.3-10.5c-44.8-14.7-25.4,60.2-18.1,79.1
				c10.1,26.5,25.4,60,45.9,80c4.5,4.4,9.8,8.3,15.9,9.5c9.3,1.9,17.9-4.6,22.6-12.2c3.9-6.3,5.4-13.8,6.3-21.1
				C235.8,208.9,234.3,193.1,230.1,177.9z"/>
		</g>
		<g>
			<g>
				<path class="st4" d="M1337.8,460.8c-0.2,43.9-27,87.8-86.1,87.8c-59.1,0-86.6-43.2-86.6-87.3c0-55,38.3-89,87.8-89
					C1310.3,372.8,1338.3,415.4,1337.8,460.8z M1252.9,400c-37.1,0-57.9,25.8-58.1,61c0,30.6,17.1,59.3,57.4,59.3
					c40.3,0,55.7-31.1,55.7-59.6C1308.4,431.1,1292.7,400.7,1252.9,400z"/>
				<path class="st4" d="M1362.6,526.1c0,6.5,0.2-30.9,0-36.6h27.2l1.9,22.9c8.9,5.1,22.7,8.9,34,8.9c21,0,42.9-5.3,42.9-25.8
					c-0.7-18.6-25.1-22.4-44.8-24.4c-33.5-3.4-60.5-11.6-60.5-49.2c0-33.5,37.9-50.2,66.1-50.2c22.7-0.5,38.8,3.1,59.3,19.5
					c0,13.5-0.2,21.5-0.2,35h-26.3l-1.7-22.2c-10.6-5.1-21.5-6.5-29.9-6.3c-18.1,0.2-37.4,8.7-37.4,23.9c0,14.9,12.5,19,34.7,22.2
					c36.2,4.8,71.1,13,71.1,51.6c-0.2,42.2-39.8,53.3-73.8,53.3C1399.3,548.8,1383.1,544,1362.6,526.1z"/>
			</g>
			<g>
				<g>
					<path class="st5" d="M1128.4,534.2c0,7.7-6.2,13.9-13.9,13.9l-160.7,0c-7.7,0-13.9-6.2-13.9-13.9l0-1.2
						c0-7.7,6.2-13.9,13.9-13.9l160.7,0c7.7,0,13.9,6.2,13.9,13.9L1128.4,534.2z"/>
				</g>
			</g>
		</g>
	</g>
</g>
<g id="background">
</g>
</svg>
