<svg xmlns="http://www.w3.org/2000/svg" viewBox="0 0 756 531">
  <defs>
    <style>
      .cls-1 {
        isolation: isolate;
      }

      .cls-2, .cls-5 {
        fill: #fff;
      }

      .cls-3 {
        fill: #f8ad1a;
      }

      .cls-4 {
        opacity: 0.6;
        mix-blend-mode: screen;
      }

      .cls-5, .cls-6 {
        opacity: 0.5;
      }

      .cls-6 {
        fill: #6fcbdc;
      }
    </style>
  </defs>
  <g class="cls-1">
    <g id="Layer_1" data-name="Layer 1">
      <g>
        <g>
          <g>
            <path class="cls-2" d="M676.541,291.158c-1.4,5.76-4.416,10.928-9.526,14.141-8,5.032-17.794,3.56-24.758-2.555-6.5-5.712-8.683-15.388-6.619-23.8,2.141-8.723,8.829-16.439,17.486-18.834C672.3,254.808,680.269,275.77,676.541,291.158Z"/>
            <path class="cls-2" d="M664.762,231.567c-11.877-4.751-7.843-67.47,3.034-143.608,3.034-21.238,8.3-31.31,14.25-36.439,8.46-7.3,23.847-7.567,34.318-6a58.649,58.649,0,0,1,32.152,15.79c7.642,7.469,8.579,15.076,5.883,24.986-4.3,15.8-11.69,30.876-18.746,45.591-1.71,3.566-16.358,31.514-18.3,34.957C681.954,229.544,674.875,235.612,664.762,231.567Z"/>
          </g>
          <path class="cls-2" d="M424.583,203.35c7.035,30.07,6.279,63.1.309,86.849-5.649,22.473-20.911,42.52-45.109,49.281-21.248,5.937-46.03,1.578-61.214-13.058-24.962-24.063-39.587-80.5-33.049-121.51,5.255-32.951,22.936-75.13,61.722-76.927a55.13,55.13,0,0,1,7.449.178C394.108,131.685,415.64,165.127,424.583,203.35Zm-71.452,68.458a14.426,14.426,0,0,0,6.605-.294c7.368-2.117,11.605-9.864,13.575-17.273a59.83,59.83,0,0,0-1.29-34.743c-1.973-5.683-4.893-11.165-9.321-15.236-15.72-14.453-31.384.609-34.077,17.642-2.108,13.333.938,28.846,9.265,39.585C341.7,266.407,347.234,270.745,353.131,271.808Z"/>
          <path class="cls-2" d="M510.105,267.1c-.075,55.49,5.5,98.008-18.8,103.011-19.7,4.056-19.092-13.366-20.6-27.955-5.829-56.573-11.182-150.51-13.415-207.349,1.6-24.456,17.863-39.372,34.835-43.046,26.12-5.653,54-4.053,77.172,10.367,45.759,28.475,49.441,80.7,21.659,123.315-15.176,23.277-61.148,40.083-80.852,38.623Zm5.827-124.5c-2.875.43-7.539,1.762-8.862,4.55-3.108,6.545-2.922,47.964,2.575,65.329.907,2.864,2.86,5.556,5.681,6.595,10.4,3.826,19.7-8.923,23.924-16.617,5.892-10.724,7.829-23.3,4.075-35.093C539.86,156.482,528.993,140.651,515.932,142.6Z"/>
          <path class="cls-2" d="M248.27,170.2c-17.173,36.474-45.682,65.413-85.092,79.74,11.3,29.669,22.831,59.012,34.132,88.681,6.289,16,12.271,33.492,6.821,49.313-5.677,16.147-27.883,20.638-44.018,3.422C129.027,358.188,24.056,148.111,16.372,132.333,9.771,118.778-.109,104.263.238,88.608.76,65.017,37.1,41.051,54.569,28.846,78.981,11.786,107.17.1,137.3,0a110.047,110.047,0,0,1,61.384,17.927,123.464,123.464,0,0,1,53.266,77.464c6.118,27.919,4.8,56.459-3.681,74.808m-80.012-39.9c-6.142-22.341-19.982-42.946-37.422-57.409-3.811-3.162-7.915-6.122-12.619-7.67-32.7-10.758-18.528,44.148-13.238,58.046,7.383,19.4,18.569,44,33.522,58.662,3.272,3.21,7.131,6.071,11.624,6.979,6.815,1.378,13.1-3.34,16.491-8.932,2.812-4.642,3.978-10.1,4.579-15.489A90.991,90.991,0,0,0,168.258,130.3Z"/>
        </g>
        <g>
          <path class="cls-2" d="M618.286,472.488c-.16,29.093-17.9,58.184-57.064,58.184s-57.384-28.612-57.384-57.864c0-36.445,25.415-58.982,58.184-58.982C600.064,414.146,618.605,442.438,618.286,472.488Zm-56.264-40.28c-24.617,0-38.363,17.1-38.523,40.441,0,20.3,11.349,39.321,38.043,39.321s36.923-20.619,36.923-39.482C598.785,452.829,588.4,432.689,562.022,432.208Z"/>
          <path class="cls-2" d="M634.738,515.8c0,4.317.16-20.459,0-24.295H652.8l1.278,15.186a50.208,50.208,0,0,0,22.538,5.914c13.907,0,28.452-3.516,28.452-17.1-.478-12.308-16.623-14.867-29.73-16.143-22.218-2.239-40.12-7.674-40.12-32.609,0-22.218,25.1-33.249,43.8-33.249,15.025-.32,25.733,2.078,39.32,12.947,0,8.953-.16,14.227-.16,23.178H700.753l-1.12-14.706a43.774,43.774,0,0,0-19.82-4.155c-11.988.159-24.775,5.755-24.775,15.823,0,9.911,8.312,12.628,23.017,14.708,23.976,3.2,47.153,8.631,47.153,34.206-.158,27.972-26.373,35.324-48.911,35.324C659.033,530.831,648.325,527.635,634.738,515.8Z"/>
        </g>
        <rect class="cls-3" x="351.958" y="502.516" width="124.958" height="19.224" rx="9.201"/>
      </g>
    </g>
    <g id="background">
      <g class="cls-4">
        <circle class="cls-5" cx="688.332" cy="210.551" r="3.872"/>
        <circle class="cls-6" cx="592.44" cy="337.266" r="6.174"/>
        <circle class="cls-6" cx="739.221" cy="403.363" r="3.872"/>
      </g>
    </g>
  </g>
</svg>
